<svg width="23" height="33" viewBox="0 0 23 33" fill="none" xmlns="http://www.w3.org/2000/svg">
<path d="M17.4415 11.4915H13.1054C12.9456 11.0398 12.5912 10.6924 12.1464 10.5325V9.90714H11.0902V10.5325C10.6385 10.6924 10.2911 11.0468 10.1312 11.4915H5.79509V12.5477H6.52473L4.78749 16.0153C4.75275 16.0917 4.7319 16.1681 4.7319 16.2515C4.7319 17.7108 5.92017 18.8991 7.37945 18.8991C8.83874 18.8991 10.027 17.7108 10.027 16.2515C10.027 16.1681 10.0062 16.0917 9.97142 16.0153L8.23418 12.5477H10.1243C10.2841 12.9994 10.6385 13.3469 11.0832 13.5067V19.9553H8.4357V21.0116H14.787V19.9553H12.1395V13.5067C12.5912 13.3469 12.9386 12.9925 13.0984 12.5477H14.9886L13.2513 16.0153C13.2166 16.0917 13.1957 16.1681 13.1957 16.2515C13.1957 17.7108 14.384 18.8991 15.8433 18.8991C17.3026 18.8991 18.4908 17.7108 18.4908 16.2515C18.4908 16.1681 18.4769 16.0917 18.4352 16.0153L16.698 12.5477H17.4276V11.4915H17.4415ZM7.37945 13.2079L8.64416 15.7304H6.12169L7.37945 13.2079ZM7.37945 17.8428C6.71236 17.8428 6.11475 17.419 5.89238 16.7866H8.87348C8.65111 17.419 8.0535 17.8428 7.37945 17.8428ZM15.8572 13.2079L17.1219 15.7304H14.5994L15.8572 13.2079ZM15.8572 17.8428C15.1901 17.8428 14.5925 17.419 14.3701 16.7866H17.3512C17.1219 17.419 16.5243 17.8428 15.8572 17.8428ZM11.6183 12.5477C11.3265 12.5477 11.0902 12.3115 11.0902 12.0196C11.0902 11.7278 11.3265 11.4915 11.6183 11.4915C11.9102 11.4915 12.1464 11.7278 12.1464 12.0196C12.1464 12.3115 11.9102 12.5477 11.6183 12.5477Z" fill="#E4926D"/>
<path d="M6.32321 19.9623H7.37945V21.0185H6.32321V19.9623Z" fill="#E4926D"/>
<path d="M15.8572 19.9623H16.9134V21.0185H15.8572V19.9623Z" fill="#E4926D"/>
<path d="M22.2085 5.14016C20.1447 5.14016 18.3171 3.81291 17.6778 1.8533C17.6153 1.67263 17.4693 1.53365 17.2817 1.4989L11.7295 0.387071C11.66 0.373173 11.5905 0.373173 11.521 0.387071L5.96188 1.4989C5.77426 1.53365 5.62138 1.67263 5.56579 1.8533C4.92648 3.81291 3.09196 5.14016 1.02812 5.14016C0.736264 5.14016 0.5 5.37642 0.5 5.66828V21.0255C0.5 23.6313 2.35537 26.2928 6.01052 28.9403C7.70607 30.1564 9.50585 31.2126 11.396 32.0952C11.5349 32.1577 11.6878 32.1577 11.8268 32.0952C12.2715 31.8936 22.7297 27.1475 22.7297 21.0255V5.66828C22.7367 5.37642 22.5004 5.14016 22.2085 5.14016ZM21.6804 21.0185C21.6804 26.0148 13.1054 30.3162 11.6183 31.025C9.87414 30.1842 8.20639 29.2044 6.63593 28.0787C4.32193 26.397 1.56319 23.812 1.56319 21.0185V6.17555C3.76601 5.97403 5.66307 4.54255 6.4622 2.47176L11.6183 1.44331L16.7745 2.47871C17.5736 4.54255 19.4706 5.97403 21.6804 6.17555V21.0185Z" fill="#E4926D"/>
<path d="M16.1352 3.62528C16.0587 3.4863 15.9267 3.38902 15.7738 3.35427L11.7226 2.54125C11.6531 2.52735 11.5836 2.52735 11.5141 2.54125L7.45591 3.35427C7.30303 3.38902 7.171 3.4863 7.09456 3.62528C6.23289 5.23744 4.75277 6.44656 2.99468 6.97468C2.77231 7.04417 2.61249 7.24569 2.61249 7.48195V21.0255C2.61249 22.8878 4.2177 25.0281 7.24744 27.2239C8.56079 28.162 9.94364 29.0029 11.389 29.7395C11.5349 29.8159 11.7156 29.8159 11.8615 29.7464C18.2893 26.6194 20.6172 22.8183 20.6172 21.0185V7.48195C20.6172 7.24569 20.4644 7.04417 20.235 6.97468C18.4839 6.44656 17.0038 5.23744 16.1352 3.62528ZM19.561 21.0185C19.561 22.2415 17.6222 25.6952 11.6461 28.6693C10.3397 27.9883 9.08196 27.217 7.8798 26.3623C5.2114 24.4305 3.68263 22.4847 3.68263 21.0185V7.86415C5.46851 7.23179 6.96948 5.98098 7.91454 4.34797L11.6183 3.60444L15.3291 4.34797C16.2811 5.98793 17.7751 7.23179 19.561 7.86415V21.0185Z" fill="#E4926D"/>
</svg>
